# xmcd
#
# Track frame offsets:
#	150
#	16912
#	43073
#	61967
#	72327
#	85456
#	97134
#	112481
#	124506
#	136238
#	154606
#	178237
#	192530
#	210967
#	225895
#
# Disc length: 3258 seconds
# Revision: 2
# Processed by: cddbd v1.5.2PL0 Copyright (c) Steve Scherf et al.
# Submitted via: dBpowerAMP V12.0
#
DISCID=d20cb80f
DTITLE=LoudonSnowdenWainwrightIII,ChapelHill,NC - Older Than My Old Man Now
DYEAR=2012
DGENRE=Country
TTITLE0=The Here and The Now
TTITLE1=In C
TTITLE2=Older Than My Old Man Now
TTITLE3=Double Lifetime
TTITLE4=Date Line
TTITLE5=All In A Family
TTITLE6=My Meds
TTITLE7=Interlude
TTITLE8=Over The Hill
TTITLE9=Ghost Blues
TTITLE10=I Remember Sex
TTITLE11=Somebody Else
TTITLE12=The Days That We Die
TTITLE13=10
TTITLE14=Something's Out To Get Me
EXTD=
EXTT0=
EXTT1=
EXTT2=
EXTT3=
EXTT4=
EXTT5=
EXTT6=
EXTT7=
EXTT8=
EXTT9=
EXTT10=
EXTT11=
EXTT12=
EXTT13=
EXTT14=
PLAYORDER=
